<svg xmlns="http://www.w3.org/2000/svg" viewBox="0 0 226.6 178.5" width="226.6" height="178.5">
  <style>
    @supports (color: color(display-p3 1 1 1)) {
      @media (color-gamut: p3) {
        .green {
          fill: color(display-p3 0.198 0.786 0);
        }
      }
    }
  </style>
  <g class="green" fill="#42c634">
    <path d="M178.1 41a3.1 3.1 0 0 0 1.2-.1l1.1-.5-.7-1a3.3 3.3 0 0 0-2-1.2 3.2 3.2 0 0 0-2 .2l-1.2.5 1 1a3.4 3.4 0 0 0 2 1.1 3.5 3.5 0 0 0 .6 0ZM176.2 139.8a3.4 3.4 0 0 0 1.2-.2 3.2 3.2 0 0 0 1.5-1.3l.9-1.1-1.4-.3a3.7 3.7 0 0 1-.5-.1 3.5 3.5 0 0 0-2.5-.1 3.3 3.3 0 0 0-1.7 1.2l-1 1.3 1.6.2a3.1 3.1 0 0 1 .6.1 4 4 0 0 0 1.3.3ZM186 43.6a3.2 3.2 0 0 0 1.5.7 3.4 3.4 0 0 0 .7.1h.8l1.4-.2-.6-.6-.8-.7a3.2 3.2 0 0 0-1.3-.8 1.5 1.5 0 0 0-.2 0 3.2 3.2 0 0 0-1.2-.2l-1.9.3 1.4 1.3a2.1 2.1 0 0 0 .2.1ZM183.4 135.7a4 4 0 0 0 1.2.2 3.4 3.4 0 0 0 1.3-.3 3.2 3.2 0 0 0 1.3-1l.8-1-1.5-.5a3.5 3.5 0 0 0-2.4 0 3.2 3.2 0 0 0-1.6 1l-.9 1.2 1.4.3h.4ZM168.7 38.6a3.3 3.3 0 0 0 1.6-.4l1-.6-.8-.9a3.4 3.4 0 0 0-2.1-1.3 3.4 3.4 0 0 0-2.4.4l-1.1.6 1 1a3.6 3.6 0 0 0 2.8 1.2ZM193.1 132.4a4.5 4.5 0 0 0 1.5-.4 3.3 3.3 0 0 0 .9-.6l.3-.4.8-.8-1.5-.3a3.3 3.3 0 0 0-2.2 0 3.3 3.3 0 0 0-.7.5 3.2 3.2 0 0 0-.5.3l-1.2 1.2 1.6.4a4.3 4.3 0 0 0 1 0ZM135.2 31.4a3.4 3.4 0 0 0-2.2-1 3.5 3.5 0 0 0-2.3.7 2.4 2.4 0 0 1-.7.4l-.6.1-.5-.2a2.6 2.6 0 0 1-.6-.4 3.5 3.5 0 0 0-2.3-.9 3.5 3.5 0 0 0-2.3.8 2 2 0 0 1-.9.5h-.7a2.2 2.2 0 0 1-.8-.5 3.5 3.5 0 0 0-2.3-.8 3.5 3.5 0 0 0-2.3.8 1.7 1.7 0 0 1-1.1.6v1.7a1.9 1.9 0 0 1 .9.5 3.5 3.5 0 0 0 2.2.7 3.5 3.5 0 0 0 2.4-.8 1.9 1.9 0 0 1 .9-.5h.8a2.3 2.3 0 0 1 .7.4 3.5 3.5 0 0 0 2.3.9 3.5 3.5 0 0 0 2.3-.9 2.2 2.2 0 0 1 .7-.4l.6-.1.5.2a2.6 2.6 0 0 1 .6.4 3.5 3.5 0 0 0 2.2.9h.2a3.5 3.5 0 0 0 2.1-.8 2.8 2.8 0 0 1 .6-.3l1.8-.7-1.7-1a3 3 0 0 1-.5-.3ZM134.6 149.2a1.4 1.4 0 0 1-.4.1 1.8 1.8 0 0 1-1.3-.3 3.4 3.4 0 0 0-2.3-.6 3.5 3.5 0 0 0-2.2 1 1.7 1.7 0 0 1-1.2.7 1.6 1.6 0 0 1-1.3-.4 3.5 3.5 0 0 0-4.5.3 1.7 1.7 0 0 1-1.2.6 1.7 1.7 0 0 1-1.2-.4 3.6 3.6 0 0 0-4.6.1 1.7 1.7 0 0 1-1.2.5 1.7 1.7 0 0 1-1.2-.5 3.4 3.4 0 0 0-2.3-.8 3.6 3.6 0 0 0-2.3.8 1.5 1.5 0 0 1-1.2.5 1.7 1.7 0 0 1-1.2-.5 3.6 3.6 0 0 0-4.6-.2 1.8 1.8 0 0 1-1.2.4 1.7 1.7 0 0 1-1.2-.6 3.5 3.5 0 0 0-2.2-1 3.4 3.4 0 0 0-2.4.6 1.7 1.7 0 0 1-2.4-.2 3.6 3.6 0 0 0-1.8-1l-1 1-2.8 2.7a5.6 5.6 0 0 0 .7-.3 1.7 1.7 0 0 1 1.3-.4 1.7 1.7 0 0 1 1 .7 3.4 3.4 0 0 0 2.3 1 3.3 3.3 0 0 0 2.3-.6 1.7 1.7 0 0 1 1.3-.3 1.6 1.6 0 0 1 1.1.5 3.4 3.4 0 0 0 2.2 1 3.3 3.3 0 0 0 2.4-.6 1.7 1.7 0 0 1 2.4 0 3.5 3.5 0 0 0 2.2 1 3.6 3.6 0 0 0 2.3-.8 1.8 1.8 0 0 1 1.2-.5 2 2 0 0 1 1.2.5 3.4 3.4 0 0 0 2.3.9 3.4 3.4 0 0 0 2.3-1 1.6 1.6 0 0 1 1.2-.5 1.5 1.5 0 0 1 1.2.5 3.3 3.3 0 0 0 2.3.7 3.4 3.4 0 0 0 2.3-1 1.7 1.7 0 0 1 1.1-.5 1.7 1.7 0 0 1 1.2.4 3.4 3.4 0 0 0 2.4.6 3.3 3.3 0 0 0 2.2-1 1.7 1.7 0 0 1 1.1-.7 1.7 1.7 0 0 1 1.3.4 3.4 3.4 0 0 0 2.4.5 3.5 3.5 0 0 0 2.1-1.1 2.3 2.3 0 0 1 .7-.6l-.7-1.6ZM39.4 52.8a3.4 3.4 0 0 0-1.3 2.2 1.7 1.7 0 0 1-1.8 1.5 3.3 3.3 0 0 0-2.3.9 3.4 3.4 0 0 0-1 2.2 1.7 1.7 0 0 1-.6 1.2 1.7 1.7 0 0 1-1.1.5 3.4 3.4 0 0 0-2.2 1 3.4 3.4 0 0 0-1 2.4 1.7 1.7 0 0 1-.3 1.2 1.7 1.7 0 0 1-1.1.6 3.4 3.4 0 0 0-2.8 3.7 1.7 1.7 0 0 1-.3 1.2 1.7 1.7 0 0 1-1 .7 3.5 3.5 0 0 0-2.4 4 1.7 1.7 0 0 1-.2 1.3 1.6 1.6 0 0 1-.9.7 3.3 3.3 0 0 0-1.8 4.3 1.7 1.7 0 0 1-.7 2.2 3.3 3.3 0 0 0-.9 4.6 1.7 1.7 0 0 1 .3 1.2 1.6 1.6 0 0 1-.5 1 3.4 3.4 0 0 0-1 2.4 3.3 3.3 0 0 0 1 2.3 1.7 1.7 0 0 1 .4 1.1 1.7 1.7 0 0 1-.3 1.2 3.4 3.4 0 0 0 .8 4.6 1.7 1.7 0 0 1 .5 2.2 3.4 3.4 0 0 0 1.5 4.4 1.7 1.7 0 0 1 .8 1 1.7 1.7 0 0 1 0 1.2 3.4 3.4 0 0 0 .3 2.5 3.3 3.3 0 0 0 1.9 1.6 1.7 1.7 0 0 1 1.2 2 3.4 3.4 0 0 0 .5 2.5 3.3 3.3 0 0 0 2 1.3 1.7 1.7 0 0 1 1.5 1.9 3.4 3.4 0 0 0 .9 2.3 3.3 3.3 0 0 0 2.2 1.1 1.7 1.7 0 0 1 1.1.5 1.6 1.6 0 0 1 .6 1.2 3.4 3.4 0 0 0 1.1 2.2 3.3 3.3 0 0 0 2.3.8 1.7 1.7 0 0 1 1.9 1.4 3.4 3.4 0 0 0 1.4 2.1 3.3 3.3 0 0 0 2.3.6 1.7 1.7 0 0 1 1.3.3v-3.7a4.5 4.5 0 0 0-1 0 1.7 1.7 0 0 1-1.4-.3 1.7 1.7 0 0 1-.7-1.2 3.7 3.7 0 0 0-3.5-2.8 1.7 1.7 0 0 1-1.3-.5 1.8 1.8 0 0 1-.6-1.2 3.7 3.7 0 0 0-3.1-3.3 1.7 1.7 0 0 1-1.2-.6 1.7 1.7 0 0 1-.4-1.3 3.7 3.7 0 0 0-2.7-3.7 1.7 1.7 0 0 1-1.1-.8 1.8 1.8 0 0 1-.3-1.4 3.8 3.8 0 0 0-2-4 1.7 1.7 0 0 1-1-.9 1.8 1.8 0 0 1-.1-1.4 3.8 3.8 0 0 0-1.5-4.3 1.7 1.7 0 0 1-.8-1.1 1.8 1.8 0 0 1 .2-1.4 3.8 3.8 0 0 0-.7-4.5 1.7 1.7 0 0 1-.6-1.2 1.8 1.8 0 0 1 .5-1.3 3.6 3.6 0 0 0 .8-2.3 3.7 3.7 0 0 0-.7-2.3 1.8 1.8 0 0 1 .4-2.5 3.6 3.6 0 0 0 1.2-2 3.7 3.7 0 0 0-.1-2.4 1.8 1.8 0 0 1 1-2.4 3.6 3.6 0 0 0 1.6-1.7 3.7 3.7 0 0 0 .4-2.4 1.8 1.8 0 0 1 .2-1.3 1.7 1.7 0 0 1 1-.8 3.6 3.6 0 0 0 2-1.5 3.6 3.6 0 0 0 .6-2.3 1.8 1.8 0 0 1 1.5-2 3.5 3.5 0 0 0 2-1.3 3.6 3.6 0 0 0 .9-2.2 1.8 1.8 0 0 1 1.6-1.9 3.5 3.5 0 0 0 2.2-1 3.6 3.6 0 0 0 1-2.2 1.7 1.7 0 0 1 .6-1.2A1.7 1.7 0 0 1 38 59a3.7 3.7 0 0 0 3.5-2.9 2 2 0 0 1 .4-.8v-3.1a3.3 3.3 0 0 0-2.4.6ZM84.2 38.4a3.5 3.5 0 0 0 2-1.3 1.7 1.7 0 0 1 1.2-.7 1.6 1.6 0 0 1 1.3.2 3.6 3.6 0 0 0 4.5-.7 1.8 1.8 0 0 1 2.4-.4 3.4 3.4 0 0 0 2.4.5 3.4 3.4 0 0 0 2.1-1 1.7 1.7 0 0 1 1.2-.7 1.7 1.7 0 0 1 1.2.3 3.5 3.5 0 0 0 2.4.7 3.5 3.5 0 0 0 2.2-1 1.8 1.8 0 0 1 2.4-.3 3.5 3.5 0 0 0 4.6-.2 1.7 1.7 0 0 1 1.1-.6l.1-1.8a1.9 1.9 0 0 1-1-.4 3.4 3.4 0 0 0-2.3-.8 3.4 3.4 0 0 0-2.2 1 1.7 1.7 0 0 1-2.4.2 3.4 3.4 0 0 0-4.6.3 1.7 1.7 0 0 1-2.4.3 3.4 3.4 0 0 0-2.3-.6 3.4 3.4 0 0 0-2.2 1.1 1.7 1.7 0 0 1-1.1.7 1.7 1.7 0 0 1-1.3-.3 3.5 3.5 0 0 0-4.5.7 1.7 1.7 0 0 1-2.3.4 3.3 3.3 0 0 0-2.5-.3 3.4 3.4 0 0 0-2 1.3 2.2 2.2 0 0 1-.6.5V38h.2a3.5 3.5 0 0 0 2.4.4ZM135.8 150.7a1.7 1.7 0 0 1 1.3.3 3.5 3.5 0 0 0 1.8.5 3.8 3.8 0 0 0 .6 0 3.5 3.5 0 0 0 2.1-1.3l.3-.3 2-.4a1.7 1.7 0 0 1 1.3.2 3.4 3.4 0 0 0 2.4.4 3.4 3.4 0 0 0 2-1.4l1.8-2-2.3.3a1.7 1.7 0 0 1-1.1-.2 3.6 3.6 0 0 0-4.5.8l-.3.3-2 .4a1.8 1.8 0 0 1-1.4-.3 3.5 3.5 0 0 0-2.3-.5 3.5 3.5 0 0 0-2.2 1.2 2.5 2.5 0 0 1-.6.5l.8 1.6a1.9 1.9 0 0 1 .3-.1ZM165.4 143.4a3.8 3.8 0 0 0 1.4.3 3.4 3.4 0 0 0 1-.2 3.3 3.3 0 0 0 1.9-1.4l.9-1.3H169a2.6 2.6 0 0 1-.7-.3 3.5 3.5 0 0 0-2.4-.2 3.6 3.6 0 0 0-2 1.4l-1.2 1.5h1.9a1.9 1.9 0 0 1 .8.2ZM157.6 148.1a3.5 3.5 0 0 0 1-.1 3.2 3.2 0 0 0 1.6-1 6.7 6.7 0 0 0 .4-.5l1.1-1.5H160a2.3 2.3 0 0 1-1-.2l-.2-.1a3.2 3.2 0 0 0-2.1-.2 3.5 3.5 0 0 0-1 .4 4.1 4.1 0 0 0-1 1l-1.8 1.8 2.3-.2a2 2 0 0 1 1 .2 3.7 3.7 0 0 0 1.5.4ZM148 35a3.7 3.7 0 0 0 1.7 1 3.6 3.6 0 0 0 .6 0h.3a3.5 3.5 0 0 0 2-.6l.3-.2 1.2-.6-1-.9a4.3 4.3 0 0 1-.4-.3 5.8 5.8 0 0 0-.4-.4 3.4 3.4 0 0 0-3-.6 4.3 4.3 0 0 0-1.1.5l-.4.2-1.4.7 1 .7.3.2a3.8 3.8 0 0 1 .4.3ZM139.4 34.2a3.5 3.5 0 0 0 2.3 1h.2a3.1 3.1 0 0 0 1.5-.4l.6-.4a4.5 4.5 0 0 1 .4-.2l1.5-.7-.8-.5-.5-.4a4.2 4.2 0 0 1-.4-.3 3.5 3.5 0 0 0-4.6-.4 3.4 3.4 0 0 1-.6.3l-1.8.7 1.7.9a3 3 0 0 1 .5.4ZM162.4 35.9l-1-1a3.5 3.5 0 0 0-4.6-.8l-1.4.8 1 .9.3.2a3.5 3.5 0 0 0 2.2 1.1 3.6 3.6 0 0 0 .5 0 3.5 3.5 0 0 0 1.9-.6l-.4-.8.5.8Z"/>
    <path d="M40 70.7h-.2a11.5 11.5 0 0 0-7.8 5.6 11.2 11.2 0 0 0-.9 9.6l.1.4c.4 1.2.4 1.2.3 1.6-.1.6-.1.6-1 1.4l-.2.3a11 11 0 0 0-3.7 9.1 11.1 11.1 0 0 0 5 8.4l.4.3c1 .7 1 .7 1 1 .3.6.3.6.1 1.9v.3a11.4 11.4 0 0 0 8.6 13.5v-5.7a6 6 0 0 1-3.3-6.9 7.9 7.9 0 0 0-.3-5 7.7 7.7 0 0 0-3.3-3.7 5.7 5.7 0 0 1-2.8-4.5 5.5 5.5 0 0 1 2-4.8 7.8 7.8 0 0 0 2.7-4.2 7.7 7.7 0 0 0-.4-5 5.8 5.8 0 0 1 .3-5.3 6 6 0 0 1 4.4-3l.8-.2v-6l-.1.1c-.4.5-.4.5-1.7.8ZM88 47.8c5.1-1 5.8 2.9 10.8 2 5-.7 4.5-4.6 9.7-5.1a6.9 6.9 0 0 1 5.3 1.7 7.5 7.5 0 0 0 5.2 1.8 7.6 7.6 0 0 0 5-2.1 10.7 10.7 0 0 1 2.2-1.5 6.6 6.6 0 0 1 3-.5 7 7 0 0 1 4.1 1.4l2.1 1.7a6.6 6.6 0 0 0 2.7 1.2 7.7 7.7 0 0 0 1.3.2c5.1.3 5.5-3.6 10.7-3 5.2.5 4.6 4.5 9.7 5.2 5 .8 5.7-3.1 10.9-2.2 3.9.8 4.3 3.3 6.5 5a7 7 0 0 0 2.6 1.1h.1a6.7 6.7 0 0 0 3.6 0c2.3-.6 3.9-2.1 7.4-1.1 5 1.5 3.7 5.3 8.5 7 4.2 1.6 5.8-1.1 9.5-.4l.8.2.8.3v-.1l3.8.7a5.2 5.2 0 0 0 1.8.2A5.3 5.3 0 0 0 221 56a5.1 5.1 0 0 0-.7-2.3l-2.2-3.7.1-.1c-3.5-4-.8-6.9-5.2-10.5a7.4 7.4 0 0 0-5.7-1.6 11 11 0 0 1-2.5 0 7.5 7.5 0 0 1-3-1.1 8.4 8.4 0 0 1-.8-.6 8.2 8.2 0 0 1-2-2 14.6 14.6 0 0 1-1-1.8l-.3-.6a7.1 7.1 0 0 0-3.8-3.5c-5.1-2-6.5 1.7-11.4 0-5-1.6-3.8-5.5-9-7-5.1-1.3-6 2.6-11.2 1.4l-.4-.1a7.2 7.2 0 0 1-2.6-1.2 14 14 0 0 1-2-2 7.4 7.4 0 0 0-4.6-2.6c-5.3-.9-5.8 3.1-11 2.5-5.2-.5-5-4.5-10.2-4.9a7.7 7.7 0 0 0-5.4 1.8 8 8 0 0 1-5.3 2c-5.2 0-5.4-4-10.7-3.8-5.4.4-5 4.4-10.2 5-5.2.6-5.8-3.3-11-2.4-4.2.7-4.6 3.3-7 5v5.9a13.6 13.6 0 0 0 6-4.3c1-1 1-1.2 2-1.3a3.4 3.4 0 0 1 .4 0c.4 0 .6 0 1.6.6a13.6 13.6 0 0 0 7 2 14.3 14.3 0 0 0 1.6-.1 12.9 12.9 0 0 0 8-3.9c1-1 1.1-1 2-1 .7 0 .8 0 2 .8a13 13 0 0 0 8.2 2.8 13.4 13.4 0 0 0 8.5-3c1-.6 1.2-.7 1.8-.7h.2c.8 0 .9.1 1.9 1a13.1 13.1 0 0 0 8 3.9 13.7 13.7 0 0 0 1.7 0 13.3 13.3 0 0 0 7-2c1-.6 1.1-.7 1.5-.7a3.5 3.5 0 0 1 .5 0c.8.2.9.3 1.8 1.3l.2.3a16.5 16.5 0 0 0 2 1.9 11.8 11.8 0 0 0 2.3 1.4 13.2 13.2 0 0 0 3.1 1 13.4 13.4 0 0 0 3 .4 14 14 0 0 0 5.7-1.4 4.3 4.3 0 0 1 1.5-.5 3 3 0 0 1 .7.2c.8.2.8.3 1.6 1.4a13 13 0 0 0 7.1 5.4 12.8 12.8 0 0 0 4.2.8 15.1 15.1 0 0 0 4.5-.8 6.2 6.2 0 0 1 1.4-.4 2.6 2.6 0 0 1 1 .3c.6.3.7.4 1.3 1.5l.6 1.2a14.6 14.6 0 0 0 1.5 2.3 13.5 13.5 0 0 0 2 1.9 14.4 14.4 0 0 0 1.6 1.2 14.3 14.3 0 0 0 7.2 2l1.3-.1h.9a1.7 1.7 0 0 1 1.3.4c.8.6.8.8 1 2.3a14.5 14.5 0 0 0 2.6 6.4 5.9 5.9 0 0 0 .4.6l1.8 3a43.3 43.3 0 0 0-4.4-.9h-.3a5 5 0 0 0-.7-.2 11.8 11.8 0 0 0-2.4-.2 14.9 14.9 0 0 0-4.3.7 6.2 6.2 0 0 1-1.4.3 2 2 0 0 1-.6-.1c-.7-.3-.8-.4-1.5-1.5a12.7 12.7 0 0 0-7.3-5.7 13.7 13.7 0 0 0-2.5-.5 11.6 11.6 0 0 0-1.3 0 11.5 11.5 0 0 0-2.7.3 18.3 18.3 0 0 0-2.8 1 4.3 4.3 0 0 1-1.4.4 2.5 2.5 0 0 1-.6-.1h-.1c-.6-.2-.8-.3-1.5-1.3a12.7 12.7 0 0 0-7.9-4.9 14 14 0 0 0-2.6-.2 13.1 13.1 0 0 0-6.5 1.8c-1 .5-1.2.6-1.5.6a2.7 2.7 0 0 1-.5 0c-.7-.1-.8-.2-1.7-1.1a12.8 12.8 0 0 0-8.2-4.3 14.3 14.3 0 0 0-1.5 0 11.8 11.8 0 0 0-3.7.5 15.8 15.8 0 0 0-3.8 1.9c-1 .6-1.2.7-1.7.7h-.3a4 4 0 0 1-.3 0c-.5 0-.7-.2-1.5-1l-.8-.6a12.3 12.3 0 0 0-7.5-2.9h-.7a11.6 11.6 0 0 0-5 1 15.8 15.8 0 0 0-3.3 2.2c-1 .9-1.1.9-1.8 1-.6 0-.7-.1-1.8-.9a12.4 12.4 0 0 0-7.7-2.8H108a12.6 12.6 0 0 0-8.3 4.2c-1 1-1 1-1.7 1.1a3 3 0 0 1-.5 0c-.3 0-.5 0-1.4-.5a12.9 12.9 0 0 0-6.3-1.8 13.5 13.5 0 0 0-3 .4 12.6 12.6 0 0 0-4.9 2.3v8c2-1.7 2.3-4.1 6.1-5Z"/>
    <path d="M29.3 41.4a7.4 7.4 0 0 0-3 5 8.6 8.6 0 0 1-2.5 5.1 8.7 8.7 0 0 1-5.1 2.5 7.5 7.5 0 0 0-5.1 3 7.6 7.6 0 0 0-1.5 5.7 9.1 9.1 0 0 1-1 5.6 9.3 9.3 0 0 1-4.2 4A7.4 7.4 0 0 0 3 76.8a7.5 7.5 0 0 0 .4 6 9.3 9.3 0 0 1 1 5.6A9.4 9.4 0 0 1 2 93.7a7.5 7.5 0 0 0-2 5.6 7.5 7.5 0 0 0 2.6 5.4 9.5 9.5 0 0 1 2.8 10.6 7.8 7.8 0 0 0 4.6 10 9.3 9.3 0 0 1 4.5 3.5 9.2 9.2 0 0 1 1.7 5.5 7.8 7.8 0 0 0 7.5 7.9 9 9 0 0 1 8.6 6.6 7.4 7.4 0 0 0 3.5 4.7 7.5 7.5 0 0 0 5.8.8V149l-1 .1a8 8 0 0 1-1 .1 1.9 1.9 0 0 1-1-.3c-.7-.4-.8-.6-1.2-1.7a14.1 14.1 0 0 0-5-7.3 14 14 0 0 0-8-3c-1.3-.1-1.5-.1-2.2-.8-.5-.6-.5-.8-.6-2a14.7 14.7 0 0 0-9.3-13.6h-.1c-1.1-.5-1.3-.6-1.7-1.4-.3-.8-.3-1 0-2.1a14.7 14.7 0 0 0 .4-8.7 14.5 14.5 0 0 0-4.4-7.3c-.9-.9-1-1-1-2-.1-.8 0-1 .7-1.9a14.6 14.6 0 0 0 3.6-7.8 14.4 14.4 0 0 0-1.3-8.5c-.5-1.2-.6-1.3-.3-2.2.3-.8.4-1 1.4-1.5a14.7 14.7 0 0 0 6.2-6.1 14.4 14.4 0 0 0 1.7-8.5c0-1.3 0-1.5.4-2.1s.7-.7 2-1a14.2 14.2 0 0 0 11.7-11.7c.3-1.2.3-1.4 1-2a1.9 1.9 0 0 1 1.4-.4h2.2a13 13 0 0 0 5.6-1.2v-6.4a8.3 8.3 0 0 1-1.4 1c-4.4 2.8-6.6-.5-11.1 2.8ZM226.2 115a5 5 0 0 0-3.1-3.2.6.6 0 0 0-.2 0 4.7 4.7 0 0 0-2.2-.2l-4.3.8h-.5l-.2.1c-4.5 1-5.9-2.4-10.7-.8-5 1.7-3.7 5.5-8.6 7.2a7 7 0 0 1-3.5.4c-1.4-.2-2.6-.7-4-1a7 7 0 0 0-3.1.2l-.7.1c-4.9 1.7-3.6 5.5-8.6 7.2-5 1.6-6.2-2.2-11.1-.7-5 1.5-3.8 5.5-8.8 6.9a8.2 8.2 0 0 1-1.1.2 7.1 7.1 0 0 1-3.6-.5 13 13 0 0 0-4-1.3 7 7 0 0 0-2.3.2 8.1 8.1 0 0 0-4.6 3.2 7.3 7.3 0 0 1-4.6 3c-5.2 1-5.8-3-10.9-2.2-5 .6-4.5 4.6-9.7 5-5.2.4-5.4-3.6-10.4-3.6-3.6 0-4.7 2.1-7 3.1h-.1l-2.3 2.3-1.5 1.5-1.9 1.8a14 14 0 0 0 2 .3h1a12.6 12.6 0 0 0 8-2.8c1-.7 1.1-.8 1.7-.8h.2c.6 0 .7 0 1.7.9a12.6 12.6 0 0 0 8 2.8h1a12.7 12.7 0 0 0 8.4-4.1c.9-1 1-1 1.6-1a4 4 0 0 1 .6-.1c.3 0 .5 0 1.5.6a13 13 0 0 0 6.5 1.9 13.6 13.6 0 0 0 2.5-.3 12.7 12.7 0 0 0 7.9-4.8c.9-1 1-1.2 1.8-1.4a2.2 2.2 0 0 1 .5-.1 4.4 4.4 0 0 1 1.4.5 16.5 16.5 0 0 0 3.5 1.1 11.3 11.3 0 0 0 2.3.3l1-.1a14 14 0 0 0 2.2-.4l.6-.2a12.9 12.9 0 0 0 7-5.3c.8-1.1.8-1.2 1.4-1.4a2.5 2.5 0 0 1 .7-.1 5.4 5.4 0 0 1 1.5.4 14.4 14.4 0 0 0 5 1 13.3 13.3 0 0 0 11.3-6.4c.7-1.1.8-1.2 1.5-1.5a2.4 2.4 0 0 1 .8-.1 5.7 5.7 0 0 1 1.3.3l.7.2a13.8 13.8 0 0 0 3.7.7h.4a12.4 12.4 0 0 0 2.7-.3 14 14 0 0 0 1.6-.4 13 13 0 0 0 7-5.7c.8-1.2.9-1.3 1.6-1.5a2.6 2.6 0 0 1 .8-.2 5.3 5.3 0 0 1 1.4.4 14.4 14.4 0 0 0 5.1 1 12.8 12.8 0 0 0 2.9-.3h.2l.5-.1 3.4-.7-1.3 2a5.4 5.4 0 0 0-.5 1l-.6 1.2v.2a16 16 0 0 0-1 1.6 27 27 0 0 0-1 3.3 6 6 0 0 1-.4 1.1 1.9 1.9 0 0 1-.6.7 1.9 1.9 0 0 1-1.2.5l-1.1-.1-2.1-.1a12.6 12.6 0 0 0-6.6 1.8 13.1 13.1 0 0 0-2.7 2 12 12 0 0 0-1.8 2.3 19.5 19.5 0 0 0-1.2 2.5l-.1.2c-.4 1-.6 1.2-1.2 1.5a1.7 1.7 0 0 1-.9.3 8.8 8.8 0 0 1-1.2-.2 17.4 17.4 0 0 0-3.2-.3 12.5 12.5 0 0 0-5.7 1.4 13 13 0 0 0-6.2 6.4c-.6 1.2-.7 1.3-1.4 1.6a2 2 0 0 1-.7.2 6.7 6.7 0 0 1-1.5-.3 15.6 15.6 0 0 0-4-.6 12.7 12.7 0 0 0-5 1 13.7 13.7 0 0 0-1.7.9 13 13 0 0 0-2.2 1.5 14.2 14.2 0 0 0-1.9 2.1l-.6.9-.3.4c-.7 1.1-.7 1.2-1.5 1.5a2.7 2.7 0 0 1-.7.1 5.2 5.2 0 0 1-1.5-.4 14.5 14.5 0 0 0-5.2-1.1 13.5 13.5 0 0 0-3.6.5 13 13 0 0 0-7.3 5c-.8 1-1 1.2-1.7 1.4a3 3 0 0 1-.6 0c-.3 0-.6 0-1.5-.6a13.6 13.6 0 0 0-6.5-1.7 13.8 13.8 0 0 0-2.3.2 13 13 0 0 0-7.7 4c-1 1-1 1.1-2 1.2h-.2c-.6 0-.7 0-1.8-.8a13.1 13.1 0 0 0-8-2.7h-.4a13 13 0 0 0-8.3 3c-1 .8-1.2.9-1.9.9h-.1c-.8 0-.9-.2-2-1a13.1 13.1 0 0 0-8-3.8 14.8 14.8 0 0 0-1.5 0 12.2 12.2 0 0 0-5.2 1v6c.3 0 .5-.1.7-.3a8 8 0 0 1 5.5-1.3c5.2.5 4.9 4.5 10.3 4.8 5.4.2 5.4-3.9 10.6-3.9 5.2-.1 5.4 4 10.9 3.5 5.3-.5 4.9-4.5 10-5.3 5.2-.8 5.9 3.1 11.2 2 5.2-1.1 4.2-5 9.3-6.4 5-1.4 6.2 2.4 11.3.8a7 7 0 0 0 3.8-3 42 42 0 0 0 1.7-2.3 7.6 7.6 0 0 1 2.1-1.7 7.5 7.5 0 0 1 .9-.4c4.8-2 6.4 1.7 11.3-.4s3.1-5.8 7.8-8c4.7-2.4 6.5 1.1 11.2-1.3a7.3 7.3 0 0 0 2-1.6 8.6 8.6 0 0 0 1.5-2.4 12.5 12.5 0 0 1 1.4-2.7 7.3 7.3 0 0 1 2.3-2c4.5-2.6 6.6.9 11.2-2.2a7.3 7.3 0 0 0 2.3-2.4 9.7 9.7 0 0 0 1-2.5 21.7 21.7 0 0 1 .8-2.6 15 15 0 0 1 .7-1.4 9.4 9.4 0 0 1 .5-1l.3-.4.2-.4 1.3-2a5.3 5.3 0 0 0 .7-1.6 5 5 0 0 0-.2-3.3ZM184.4 22.3a2 2 0 0 0 .6.2 6.5 6.5 0 0 0 1-.3 17.4 17.4 0 0 1 5-.8l4.8-5.2H187a2.8 2.8 0 0 0-2 1l-1.5 1.5a2 2 0 0 0-.1 2.5c.6 1 .6 1 1.1 1.1Z"/>
    <path d="M134.4 79.6A3.6 3.6 0 0 1 137 81l26 38.2.5-.2a14.3 14.3 0 0 1 8 0l-30-44.3a3.6 3.6 0 0 1 .3-4.6l14-13.9a14.3 14.3 0 0 1-5.2-3.7l-.6-.6L69 133a2 2 0 0 1-2.2.4 2 2 0 0 1-1.3-1.8V16.2h-7.2v148.3h7.2V148a3.6 3.6 0 0 1 1-2.5l65-65a3.6 3.6 0 0 1 2.9-1ZM192.3 150.2a1.8 1.8 0 0 0-.5.2c-.4.2-.4.2-1 1.2a18.4 18.4 0 0 1-1.5 2.7 3.4 3.4 0 0 0 0 4l4.2 6.2h8.7l-9.7-14.3h-.2Z"/>
  </g>
  <g fill="#fff">
    <path d="M159.3 21.4a7.2 7.2 0 0 0 2.6 1.2l7.5-9.3c2.7-3.3 6.2-5.2 9.8-5.2H211c1.6 0 2.8 1.7 2.8 3.8a4.5 4.5 0 0 1-1 3 415 415 0 0 1-15 16.9l.3.6a14.6 14.6 0 0 0 1 1.9 8.2 8.2 0 0 0 2 1.9 420.3 420.3 0 0 0 15.9-17.9A9.8 9.8 0 0 0 219 12c0-5.1-3.6-9.2-8.1-9.2h-31.8c-5.3 0-10.2 2.6-14 7.2l-2.8 3.5-5 6a14 14 0 0 0 2 2ZM179.9 54.8h-.1a7 7 0 0 1-2.6-1.3l-18.2 19a4.6 4.6 0 0 0-.3 5.4c4.5 6.8 16 24.4 27.1 40.6a7 7 0 0 1 3.2-.2c1.3.3 2.5.8 4 1-8.2-11.8-18.3-26.8-29.4-43.7l20-20.9a6.7 6.7 0 0 1-3.7 0ZM220.4 153.2a40.6 40.6 0 0 1-4.6-3.9l-3-2.6c-1-1-3.7-4.4-7.7-9.9a12.5 12.5 0 0 0-1.4 2.7 8.6 8.6 0 0 1-1.5 2.4c3.4 4.7 6 8 7.1 9 2.6 2.1 5.2 4.8 8 6.7 2 1.4 3.3 4.2 3.3 7.3 0 4.6-2.7 8.2-6 8.2h-30a6.1 6.1 0 0 1-4.9-2.6c-2.3-3-4.3-6.9-6.4-10.2l-4.3-6.7a7.6 7.6 0 0 0-2.1 1.7 21.3 21.3 0 0 0-1.7 2.4l3.5 5.5 2 3.4a70.4 70.4 0 0 0 4.7 7.2 11.6 11.6 0 0 0 9.1 4.7h30.2c6.3 0 11.3-6 11.3-13.6 0-4.9-2.2-9.4-5.6-11.7ZM154 130l-8.7-13.8c-3.2-5.1-6.5-10.2-11.2-12.6a7.1 7.1 0 0 0-3.2-.7 6.2 6.2 0 0 0-1.5.2 8.7 8.7 0 0 0-2.7 1.2 23.9 23.9 0 0 0-2.7 2L106 124l-10.4 10.2-4.2 4v.1l-3.7 3.7-.2.1-4.7 4.6-3.2 3.2-.5.5a1.8 1.8 0 0 0-.2.2 9.3 9.3 0 0 0-2.1 3.4 9.5 9.5 0 0 0-.6 3.2v10.5a6 6 0 0 1-2 4.8 3.2 3.2 0 0 1-1.9.6H51c-1.5 0-2.8-1.2-3.5-3a7.3 7.3 0 0 1-.4-2.4V71l.1-11.4V10.8c0-3 1.8-5.4 4-5.4h21.3c2.2 0 4 2.4 4 5.4v17.9l-.1 6.4v19.6l-.1 29.1v25.5L87.7 98l35.1-34.6 2.6-2.6 2.7-2.5 10-9.9a6.6 6.6 0 0 1-2.7-1.2l-2-1.7-5.5 5.5-8.8 8.4v.1a2.1 2.1 0 0 0-.2.2l-.3.3-.4.3-.4.4-.5.5-.6.6-.7.7-.7.7-1.6 1.6-7.2 7-2.6 2.6-20 19.8-2 1.9V10.9C81.9 4.8 77.8 0 72.5 0H51.2c-5.2 0-9.3 4.8-9.3 10.8v43.7l-.1 15.3v65.7l-.1 13.3v18.9a13 13 0 0 0 .7 4.3c1.5 4 4.9 6.5 8.6 6.5h21.3a9 9 0 0 0 8.2-5.6 12.4 12.4 0 0 0 1.1-5.2v-10.5a4.2 4.2 0 0 1 1.3-3l3-2.8 2.6-2.7 1.1-1 1.9-1.8v-.1l1.1-1.1 1.9-1.8 1.5-1.5 2.3-2.2 8.5-8.5a13316.1 13316.1 0 0 1 20-19.5l.4-.4.5-.4.7-.6c1.5-1.4 2.2-1.5 2.5-1.5a2 2 0 0 1 .8.2c3.4 1.7 6.3 6.2 9 10.6l4.4 6.8 2.9 4.5a13 13 0 0 1 4 1.3 7.1 7.1 0 0 0 3.5.5l-1.4-2.3ZM155.4 168.8h1.4v3h1v-3h1.4v-.7h-3.8ZM162.3 169.6l-1.2-1.5H160v3.6h1v-2.4l1.2 1.6 1.4-1.6v2.4h1v-3.6h-1.1Z"/>
  </g>
</svg>
