<svg xmlns="http://www.w3.org/2000/svg" viewBox="0 0 600 128.6" width="600" height="128.6">
  <defs>
    <style>
      .cls-3{fill:#313547}
    </style>
  </defs>
  <circle cx="64.3" cy="64.3" r="51.4" style="fill:#fff"/>
  <path d="m82.7 78.3 4.1 5.7a30.8 30.8 0 0 1-20.7 7.9c-12.7 0-27.6-9.7-27.6-27.6s14.8-27.6 27.6-27.6 19.5 6.9 19.5 14.7c0 4.2-3.4 8.3-8.3 8.3s-8.3-4-8.3-8.3c0-3.7 2.3-5.7 2.5-5.9l.3-.6c0-.4-.3-.9-.9-.9-8.2 0-18.3 7.2-18.3 18.9s8.6 18.9 18.9 18.9c5.3.1 8.6-1.7 11.2-3.5M64.3 0a64.3 64.3 0 1 0 0 128.6A64.3 64.3 0 0 0 64.3 0" style="fill:#ff3043"/>
  <path class="cls-3" d="M193.9 83.3c-9 0-17.5-6.6-17.5-18.9s8.7-19.2 17.5-19.2c8 0 12.8 4.2 14.8 9.7l8.3-3.2c-3-8.2-10.8-14.9-23.1-14.9-13.7 0-26.6 10.4-26.6 27.6s12.5 27.5 26.7 27.5a24 24 0 0 0 23.2-15.2l-8.1-3.1a16.2 16.2 0 0 1-15.2 9.7"/>
  <path class="cls-3" d="M240.2 84.1c-5.3 0-10.1-4-10.1-11.6s4.8-11.4 10.1-11.4 10.1 3.9 10.1 11.4-4.7 11.6-10.1 11.6m0-30.8a18.4 18.4 0 0 0-18.8 19.2c0 2.3.3 4.4.9 6.3l.7.3-.7-.3c2.4 7.8 9.2 13 17.9 13 10.9 0 18.9-8.1 18.9-19.3s-8-19.2-18.9-19.2"/>
  <path class="cls-3" d="M285.7 53.4c-4 0-8.4 1.7-10.7 5.9v-4.8h-8.4v36.3h8.7v-21c0-4.8 2.6-8.6 7.5-8.6 5.4 0 7.5 3.6 7.5 8.1v21.5h8.7v-23c-.1-8-4.4-14.4-13.3-14.4"/>
  <path class="cls-3" d="m322.5 80.4-9.6-26h-9.5l14.7 36.3h8.7L341 54.4h-9.1l-9.4 26z"/>
  <path class="cls-3" d="M352.8 68.6a8.7 8.7 0 0 1 8.9-8.1c6 0 8.8 3.8 8.9 8.1h-17.8Zm8.8-15.3c-9.2 0-17.7 7.6-17.7 19.1 0 12.3 8.7 19.5 18.6 19.5 8.7 0 14.5-5.1 16.4-11.5l-7.3-2.3c-1.2 3.6-3.9 6.3-9.1 6.3s-9.7-4-9.9-9.5h26.6c.1-.1.2-1.3.2-2.8-.1-11.4-6.6-18.8-17.8-18.8Z"/>
  <path class="cls-3" d="M396.2 60.2v-5.8h-8.4v36.3h8.7V73.4c0-6.8 3.1-10.7 9.8-10.7l2.8.2v-8.8l-2.3-.2c-4.9.1-8.9 2.4-10.6 6.3"/>
  <path class="cls-3" d="m432.3 69.2-5.5-1.1c-2.2-.4-3.7-1.9-3.7-3.8 0-2.2 2.2-4.2 5.2-4.2 4.8 0 6.4 3.4 6.7 5.4l7.3-2.1c-.6-3.6-3.9-10.1-14-10.1-7.5 0-13.3 5.4-13.3 11.7 0 5 3.4 9.2 9.8 10.6l5.4 1.2c2.9.6 4.3 2.1 4.3 4 0 2.2-1.9 4.2-5.4 4.2-4.6 0-7.1-2.9-7.4-6.2l-7.5 2.1c.4 4.1 4.5 11 15 11 9.2 0 13.7-6.1 13.7-11.6-.2-5.4-3.8-9.6-10.6-11.1"/>
  <path class="cls-3" d="M467.4 84.1c-5.3 0-10.1-4-10.1-11.6s4.8-11.4 10.1-11.4 10.1 3.9 10.1 11.4c.1 7.6-4.7 11.6-10.1 11.6m0-30.8c-10.8 0-18.8 8.1-18.8 19.2s8 19.3 18.8 19.3 18.9-8.1 18.9-19.3-8-19.2-18.9-19.2"/>
  <path class="cls-3" d="M539.3 36.7c-3.1 0-5.6 2.5-5.6 5.7s2.5 5.6 5.6 5.6 5.7-2.5 5.7-5.6a5.8 5.8 0 0 0-5.7-5.7"/>
  <path class="cls-3" d="M535 90.7h8.6V54.4H535v36.3z"/>
  <path class="cls-3" d="M574.2 75.7c0 7.1-4.2 9.4-9 9.4-3.4 0-5.3-2.2-5.3-4.7 0-3 2.2-4.5 4.8-4.9l9.5-1.4v1.6Zm8.5-8.8c0-7.2-4.3-13.6-15.4-13.6-9 0-14.6 5.6-15.3 11.9l7.9 1.8c.4-3.7 2.9-6.6 7.5-6.6s6.9 2.5 6.9 5.5c0 1.3-.6 2.3-2.7 2.6l-9.3 1.4c-6.2.9-11 4.5-11 11 0 5.7 4.7 11 12.3 11 5.9 0 9.5-3 11.2-5.7 0 2.9.3 4.4.4 4.6h8.1c-.1-.4-.4-2.5-.4-5.8V66.9h-.2Z"/>
  <path class="cls-3" d="M591.4 90.7h8.6v-54h-8.6v54z"/>
  <path class="cls-3" d="M519.6 79a9 9 0 0 1-8.4 5c-5.4 0-10.1-4.1-10.1-11.4s4.7-11.3 10-11.3c4.6 0 7 2.5 8.2 5.1l7.7-3a16.4 16.4 0 0 0-16-10.1c-10.4 0-18.6 8.1-18.6 19.2s8.1 19.3 18.8 19.3c8.5 0 13.7-4.9 16-10l-7.6-2.8Z"/>
</svg>
