<svg xmlns="http://www.w3.org/2000/svg" viewBox="0 0 31.36 31.64" width="31.36" height="31.64">
  <path d="M20.8 26.78c-.13-.73-1.28-1.48-2.21-2.08l-.58-.38a2.98 2.98 0 0 1-1.47-2.22 2.6 2.6 0 0 1 1.1-2.2l1.56-.95c1.34-.81 1.84-1.99 1.32-3.07-.27-.74-1.53-1.49-2.55-2.09l-.76-.46a2.62 2.62 0 0 1-.08-4.8 4.88 4.88 0 0 0 1.78-1.51c.62-1.07.12-2.42-1.22-3.29l-1.75-1.18A2.71 2.71 0 0 1 14.66 0L13.4.87c-.87.6-1.86 1.28-2.08 1.5a2.52 2.52 0 0 0-.92 2.07 2.27 2.27 0 0 0 1.1 1.67q.86.6 1.78 1.2a2.95 2.95 0 0 1 1.48 2.23 2.63 2.63 0 0 1-1.13 2.2l-1.52.94c-1.48.92-1.94 2.27-1.15 3.36a7.42 7.42 0 0 0 2.36 1.78l.78.48a2.62 2.62 0 0 1 .06 4.8l-.78.5a2.4 2.4 0 0 0-1.26 2 2.8 2.8 0 0 0 1.46 2.3l.49.32a8.56 8.56 0 0 1 2.02 1.6 2.43 2.43 0 0 1 .5 1.82c.82-.6 1.7-1.21 2.71-1.87 1.24-.81 1.82-1.95 1.5-2.98Z" fill="#42c634"/>
  <path d="M31.3 22.46a2.31 2.31 0 0 0-1-1.3l-1.82-1.23a2.84 2.84 0 0 1-1.45-2.38 3.04 3.04 0 0 1 1.64-2.44l.83-.52a2.35 2.35 0 0 0 1.34-2.03 2.92 2.92 0 0 0-1.73-2.34c-.29-.15-1.76-.97-2.12-1.23h-.01a3.49 3.49 0 0 1-1.96-2.7l-1.12.8a24.4 24.4 0 0 0-2.3 1.72 2.13 2.13 0 0 0-.64 1.88 2.96 2.96 0 0 0 1.54 1.96l2.05 1.23a2.97 2.97 0 0 1 1.64 2.28 2.65 2.65 0 0 1-1.26 2.27 7.43 7.43 0 0 1-.85.54l-.43.25a2.88 2.88 0 0 0-1.6 2.26 2.46 2.46 0 0 0 1.22 2.1l.5.35a7.22 7.22 0 0 1 1.93 1.63 2.06 2.06 0 0 1 .19 1.88c1.02-.6 2.15-1.23 3.44-1.94 1.49-.82 2.24-1.98 1.97-3.03Z" fill="#42c634"/>
  <path d="M8.51 17.73 6.48 16.5a2.8 2.8 0 0 1-1.59-2.37 3 3 0 0 1 1.72-2.46l.87-.52a2.88 2.88 0 0 0 1.6-2.23A2.42 2.42 0 0 0 7.94 6.8l.01-.01c-.33-.2-1.4-1.02-1.64-1.2a2.16 2.16 0 0 1-.82-2.59l-1.07.6c-1.17.66-2.79 1.56-3.1 1.83A2.79 2.79 0 0 0 0 7.64a1.98 1.98 0 0 0 .95 1.6l1.76 1.21A2.6 2.6 0 0 1 2.8 15a7.37 7.37 0 0 1-.83.53l-.43.26A2.48 2.48 0 0 0 .12 17.9a2.81 2.81 0 0 0 1.67 2.27l.76.44a11.7 11.7 0 0 1 2.34 1.53 2.83 2.83 0 0 1 .93 1.99c.88-.64 1.84-1.3 2.93-2.02a2.32 2.32 0 0 0 1.08-3.06 3.45 3.45 0 0 0-1.32-1.32Z" fill="#42c634"/>
</svg>