<?xml version="1.0" standalone="no"?>
<!DOCTYPE svg PUBLIC "-//W3C//DTD SVG 20010904//EN"
 "http://www.w3.org/TR/2001/REC-SVG-20010904/DTD/svg10.dtd">
<svg version="1.0" xmlns="http://www.w3.org/2000/svg"
 width="1024.000000pt" height="1024.000000pt" viewBox="0 0 1024.000000 1024.000000"
 preserveAspectRatio="xMidYMid meet">
<metadata>
Created by potrace 1.14, written by Peter Selinger 2001-2017
</metadata>
<g transform="translate(0.000000,1024.000000) scale(0.100000,-0.100000)"
fill="#000000" stroke="none">
<path d="M4660 10145 c-63 -46 -120 -84 -127 -84 -6 -1 -13 -5 -15 -9 -1 -4
-32 -28 -68 -52 -36 -25 -66 -48 -68 -52 -2 -5 -10 -8 -18 -8 -8 0 -14 -4 -14
-10 0 -5 -6 -10 -14 -10 -8 0 -16 -4 -18 -8 -3 -7 -30 -26 -202 -142 -29 -19
-70 -50 -93 -67 -22 -18 -46 -33 -52 -33 -6 0 -11 -4 -11 -10 0 -5 -5 -10 -11
-10 -6 0 -16 -6 -24 -12 -7 -7 -26 -22 -41 -33 -59 -42 -187 -148 -222 -184
-169 -173 -245 -363 -238 -591 4 -105 22 -174 71 -271 24 -46 85 -132 101
-142 8 -4 14 -13 14 -20 1 -17 83 -80 265 -202 88 -59 169 -115 180 -124 11
-9 32 -23 48 -31 15 -7 27 -17 27 -22 0 -4 5 -8 10 -8 6 0 33 -16 60 -35 27
-19 54 -35 60 -35 5 0 10 -5 10 -10 0 -6 8 -14 18 -17 48 -19 201 -133 267
-199 73 -74 135 -153 135 -172 0 -6 4 -12 9 -14 4 -1 24 -37 43 -78 32 -68 45
-108 76 -223 15 -57 6 -211 -17 -302 -39 -149 -141 -321 -242 -408 -99 -85
-115 -97 -126 -97 -7 0 -13 -4 -13 -10 0 -5 -3 -9 -7 -8 -8 2 -71 -35 -125
-73 -15 -10 -32 -19 -38 -19 -5 0 -10 -4 -10 -9 0 -5 -11 -12 -25 -15 -14 -4
-25 -11 -25 -16 0 -6 -5 -10 -11 -10 -6 0 -31 -13 -56 -30 -24 -16 -47 -30
-52 -30 -4 0 -16 -8 -27 -17 -11 -10 -36 -26 -55 -36 -128 -65 -319 -245 -407
-382 -22 -35 -72 -146 -76 -171 -3 -13 -7 -28 -11 -33 -5 -9 -17 -103 -19
-151 -1 -41 19 -142 40 -197 50 -134 98 -193 319 -397 28 -25 53 -46 58 -46 4
0 15 -8 25 -17 48 -45 248 -182 307 -210 17 -8 66 -34 110 -58 44 -25 91 -50
105 -57 14 -7 28 -17 32 -23 4 -5 8 -6 8 -2 0 5 7 2 15 -5 32 -29 45 -37 147
-91 99 -53 110 -60 163 -102 54 -42 145 -133 145 -144 0 -3 10 -18 23 -32 36
-41 97 -155 97 -183 0 -9 4 -16 10 -16 5 0 9 -3 8 -7 -1 -5 4 -28 12 -53 36
-122 44 -323 15 -370 -3 -6 -2 -10 4 -10 6 0 4 -15 -5 -35 -8 -20 -12 -40 -9
-45 4 -6 1 -10 -5 -10 -6 0 -9 -4 -6 -8 3 -5 -1 -20 -9 -35 -8 -15 -12 -27
-10 -27 7 0 -83 -167 -102 -191 -10 -12 -26 -30 -35 -41 -10 -10 -18 -22 -18
-28 0 -5 -7 -10 -15 -10 -8 0 -15 -5 -15 -10 0 -12 -34 -45 -70 -70 -12 -8
-32 -23 -43 -34 -12 -10 -31 -22 -42 -28 -11 -5 -38 -20 -60 -33 -22 -14 -47
-28 -55 -32 -8 -4 -68 -41 -132 -84 -64 -42 -126 -80 -137 -84 -12 -3 -21 -10
-21 -15 0 -5 -9 -12 -21 -15 -46 -15 -239 -232 -239 -269 0 -5 -7 -17 -16 -27
-8 -9 -16 -26 -17 -38 -1 -11 -4 -21 -7 -21 -7 0 -31 -85 -46 -165 -11 -57 0
-221 16 -237 1 -2 4 -16 6 -32 2 -16 9 -33 16 -37 7 -5 10 -9 5 -9 -4 0 0 -17
9 -38 9 -20 17 -43 17 -49 0 -7 4 -13 9 -13 4 0 8 -5 8 -11 0 -6 9 -23 20 -39
11 -15 17 -30 13 -33 -3 -4 2 -9 11 -13 9 -3 16 -11 16 -18 0 -14 42 -66 100
-125 80 -81 87 -86 299 -221 57 -36 146 -93 199 -127 53 -35 97 -63 99 -63 1
0 11 -6 20 -14 94 -75 133 -106 136 -106 19 0 277 -255 314 -310 47 -70 95
-183 108 -252 3 -13 8 -34 11 -48 4 -14 7 -73 8 -132 l1 -106 45 33 c77 55
236 169 256 183 11 7 67 46 126 87 59 41 110 75 113 75 4 0 13 6 20 13 33 28
45 37 53 37 5 0 17 9 27 20 10 11 21 17 25 15 5 -3 10 -1 12 3 4 12 95 72 107
72 6 0 11 4 11 8 0 5 12 15 28 23 30 16 44 25 73 51 10 10 22 18 25 18 15 0
119 86 196 163 131 132 228 305 258 463 11 58 9 200 -3 254 -26 108 -31 120
-86 205 -34 52 -238 255 -257 255 -3 0 -25 16 -48 35 -24 19 -48 35 -55 35 -6
0 -11 3 -11 8 0 4 -25 23 -55 42 -30 19 -55 38 -55 43 0 4 -6 7 -13 7 -7 0
-23 9 -35 20 -12 11 -23 20 -26 20 -3 0 -92 57 -198 127 -194 129 -310 226
-364 305 -16 24 -33 48 -39 54 -23 25 -114 220 -121 261 -3 14 -11 51 -18 82
-15 64 -13 183 4 256 6 28 14 61 16 74 3 13 11 36 19 51 8 15 11 30 8 34 -4 3
-1 6 5 6 7 0 12 7 12 14 0 8 16 42 35 74 64 109 146 201 234 262 20 14 38 28
39 33 2 4 8 7 14 7 5 0 23 9 39 21 16 11 29 17 29 12 0 -4 4 -3 8 3 4 6 99 68
212 136 244 149 290 179 290 190 0 4 5 8 10 8 24 0 230 203 230 226 0 4 6 15
14 23 8 9 30 48 49 86 86 171 94 348 25 525 -28 71 -77 160 -89 160 -5 0 -9 5
-9 12 0 22 -171 178 -260 238 -12 8 -28 21 -36 27 -7 7 -15 13 -17 13 -5 0
-143 92 -162 108 -5 4 -12 8 -15 8 -3 0 -30 16 -60 35 -30 19 -93 57 -140 84
-47 27 -86 53 -88 57 -2 4 -8 8 -13 8 -5 0 -39 19 -76 41 -38 23 -113 67 -168
97 -139 76 -226 148 -301 248 -16 21 -31 41 -35 44 -13 11 -100 202 -95 207 3
4 1 12 -5 19 -11 13 -18 47 -22 97 -1 15 -4 27 -7 27 -3 0 -5 17 -4 38 1 20
-3 47 -7 60 -5 12 -5 22 -1 22 4 0 8 24 9 53 3 77 7 117 13 117 3 0 6 8 6 18
2 27 11 64 25 97 7 17 13 32 14 35 10 29 29 68 45 90 11 15 17 30 13 34 -3 3
-1 6 5 6 7 0 12 7 12 15 0 8 4 15 8 15 4 0 15 12 24 28 24 37 83 99 143 147
28 22 52 42 55 45 10 10 86 51 113 61 15 6 27 15 27 21 0 5 4 7 9 3 5 -3 16 2
24 10 9 8 19 15 23 15 7 0 134 79 144 90 3 3 30 24 60 46 63 48 190 171 190
186 0 5 5 6 10 3 6 -3 10 -2 10 4 0 5 6 16 13 23 31 31 97 128 97 143 0 8 4
15 9 15 7 0 18 26 21 52 0 4 7 25 14 45 7 21 12 46 10 55 -1 10 1 20 5 22 11
7 4 171 -8 195 -9 16 -9 21 0 21 8 0 8 4 1 13 -5 6 -13 28 -17 47 -4 19 -12
44 -18 55 -6 11 -12 22 -12 25 -1 5 -18 39 -59 116 -9 18 -23 37 -31 44 -8 7
-15 17 -15 23 0 5 -13 23 -30 39 -16 15 -30 31 -30 34 0 7 -51 57 -125 120
-33 28 -175 128 -315 222 -140 94 -303 205 -363 245 -140 96 -231 182 -279
263 -11 19 -24 34 -29 34 -5 0 -8 3 -7 8 1 4 -12 34 -29 67 -29 58 -58 135
-69 186 -14 67 -17 91 -18 176 -1 55 -5 93 -11 92 -5 0 -62 -38 -125 -84z"/>
<path d="M1790 9245 c-14 -8 -38 -21 -55 -29 -16 -9 -43 -24 -60 -33 -95 -57
-216 -123 -225 -123 -5 0 -10 -4 -10 -10 0 -5 -5 -10 -11 -10 -6 0 -52 -24
-102 -53 -51 -30 -99 -57 -107 -60 -8 -4 -33 -18 -55 -32 -22 -14 -47 -28 -55
-32 -8 -4 -68 -37 -134 -75 -65 -37 -122 -68 -127 -68 -5 0 -9 -5 -9 -11 0 -5
-4 -7 -10 -4 -5 3 -10 2 -10 -2 0 -5 -29 -23 -65 -42 -35 -19 -73 -42 -84 -52
-10 -10 -22 -15 -25 -12 -3 4 -6 0 -6 -7 0 -7 -3 -11 -6 -7 -3 3 -34 -14 -67
-37 -34 -24 -78 -54 -99 -68 -100 -68 -195 -158 -246 -233 -15 -22 -30 -42
-33 -45 -4 -3 -25 -44 -47 -91 -78 -163 -105 -323 -76 -448 19 -81 66 -183
111 -241 45 -57 144 -150 161 -150 6 0 12 -4 12 -10 0 -5 7 -10 15 -10 8 0 15
-3 15 -7 0 -5 12 -15 28 -24 15 -9 63 -42 107 -74 44 -31 120 -84 170 -118 49
-33 94 -65 100 -70 5 -4 71 -48 145 -97 150 -99 203 -144 276 -240 60 -79 124
-206 138 -275 4 -16 9 -41 12 -55 20 -87 24 -214 10 -300 -16 -98 -70 -252
-103 -291 -7 -8 -13 -19 -13 -22 0 -8 -64 -93 -89 -119 -9 -9 -21 -23 -27 -30
-5 -7 -30 -29 -53 -48 -24 -19 -48 -39 -55 -45 -6 -5 -23 -16 -38 -24 -16 -8
-28 -18 -28 -23 0 -4 -4 -8 -10 -8 -5 0 -42 -23 -81 -51 -39 -28 -90 -60 -112
-72 -23 -11 -44 -24 -47 -27 -6 -9 -53 -34 -62 -35 -4 0 -16 -7 -26 -16 -10
-9 -43 -29 -73 -45 -95 -50 -170 -105 -235 -171 -35 -36 -64 -69 -64 -73 0 -5
-6 -15 -13 -22 -27 -30 -57 -78 -57 -93 0 -8 -5 -15 -12 -15 -6 0 -8 -3 -5 -7
4 -3 0 -17 -8 -30 -9 -13 -13 -23 -9 -23 4 0 2 -6 -4 -12 -10 -13 -28 -73 -40
-133 -39 -194 76 -488 256 -657 101 -94 116 -105 222 -160 30 -16 60 -34 67
-40 7 -6 13 -7 13 -3 0 5 8 1 18 -7 17 -16 146 -90 240 -138 29 -16 59 -33 67
-40 8 -7 15 -9 15 -6 0 4 12 -1 27 -12 16 -10 35 -22 43 -25 8 -4 29 -16 45
-27 17 -11 37 -23 45 -27 28 -12 225 -146 228 -155 2 -4 8 -8 13 -8 6 0 15 -5
22 -10 7 -6 30 -24 52 -40 22 -17 49 -38 61 -48 11 -9 40 -32 65 -51 66 -52
209 -222 209 -250 0 -5 9 -20 21 -35 11 -14 17 -26 14 -26 -4 0 -3 -6 2 -13
25 -30 69 -187 79 -280 3 -29 7 -53 9 -55 3 -3 54 27 65 38 3 3 34 25 70 50
36 24 67 48 68 52 2 4 10 8 17 8 7 0 15 4 17 8 3 8 157 115 353 246 50 34 92
63 95 66 3 3 23 17 45 30 22 13 42 26 45 29 9 11 175 118 209 135 63 33 221
169 221 191 0 3 9 16 21 28 29 31 95 171 115 242 20 76 27 242 13 320 -14 77
-47 178 -62 187 -7 4 -9 8 -4 8 22 0 -96 154 -193 250 -88 87 -163 141 -376
265 -60 35 -206 124 -304 185 -52 32 -100 59 -107 59 -6 1 -13 5 -15 9 -3 8
-104 72 -114 72 -19 0 -155 101 -212 157 -60 60 -152 180 -152 198 0 4 -9 19
-19 34 -11 15 -23 40 -27 57 -4 16 -14 45 -22 64 -15 35 -19 47 -26 85 -27
137 -25 196 6 310 6 22 12 47 13 55 0 8 6 25 13 36 6 12 8 24 5 28 -3 3 -2 6
3 6 5 0 18 23 29 50 11 28 23 50 27 50 4 0 8 5 8 11 0 37 226 299 258 299 7 0
12 5 12 12 0 6 3 9 6 5 3 -3 15 3 26 13 12 10 46 32 77 47 31 15 61 32 66 36
9 7 57 36 234 139 25 15 65 37 87 49 23 12 54 32 69 45 16 13 31 24 35 24 26
0 230 230 230 260 0 6 5 10 12 10 6 0 9 3 5 6 -3 3 5 23 18 44 13 21 21 41 18
44 -4 3 -1 6 5 6 7 0 11 3 10 8 0 4 2 15 5 25 4 9 10 25 14 35 3 9 7 20 8 25
2 4 3 8 5 10 1 1 4 16 6 32 3 17 9 42 14 57 7 22 8 213 1 213 -2 0 -5 11 -8
25 -7 39 -11 55 -13 55 -2 0 -11 38 -12 53 -1 6 -5 12 -10 12 -4 0 -8 7 -8 15
0 14 -33 77 -77 147 -28 46 -134 155 -188 194 -22 16 -49 37 -59 47 -11 9 -26
17 -33 17 -7 0 -13 4 -13 8 0 4 -15 16 -32 27 -18 10 -35 21 -38 24 -3 3 -21
17 -40 31 -19 13 -39 28 -45 33 -5 4 -35 26 -65 48 -30 21 -59 43 -65 47 -5 4
-28 21 -50 37 -22 17 -42 32 -45 35 -3 4 -27 22 -55 41 -27 18 -56 39 -64 44
-37 26 -141 135 -168 175 -31 48 -81 150 -87 178 -1 9 -6 24 -9 32 -20 54 -28
214 -13 290 11 60 15 77 25 104 14 36 12 39 -19 21z"/>
<path d="M8000 8099 c-74 -54 -187 -134 -250 -176 -106 -72 -206 -142 -255
-179 -11 -8 -65 -48 -120 -89 -55 -41 -113 -85 -128 -99 -15 -15 -32 -26 -37
-26 -6 0 -15 -9 -22 -20 -7 -11 -18 -20 -25 -20 -6 0 -13 -3 -15 -8 -1 -4 -25
-25 -53 -47 -131 -104 -221 -249 -255 -411 -20 -92 -15 -223 10 -302 19 -61
96 -230 110 -242 3 -3 13 -16 21 -30 23 -34 127 -151 135 -149 4 0 15 -12 25
-28 10 -15 19 -24 19 -20 0 5 15 -3 33 -17 17 -15 37 -30 42 -34 6 -5 35 -22
65 -39 30 -17 77 -44 103 -59 103 -62 123 -74 152 -90 17 -9 32 -20 35 -23 3
-3 17 -13 33 -21 47 -26 241 -141 269 -161 15 -11 32 -19 38 -19 5 0 10 -4 10
-10 0 -5 4 -10 8 -10 7 0 78 -38 140 -75 88 -52 235 -198 286 -284 6 -10 21
-33 33 -51 12 -19 20 -37 17 -42 -3 -4 -1 -8 4 -8 10 0 45 -85 45 -107 0 -7 4
-13 8 -13 7 0 23 -59 36 -135 9 -52 4 -156 -11 -225 -7 -35 -18 -76 -23 -90
-3 -8 -7 -19 -8 -25 -6 -26 -53 -116 -90 -176 -60 -94 -228 -259 -263 -259 -6
0 -12 -3 -14 -7 -4 -11 -67 -55 -100 -72 -16 -8 -28 -18 -28 -23 0 -4 -4 -8
-10 -8 -5 0 -50 -25 -101 -55 -50 -30 -95 -55 -100 -55 -5 0 -9 -4 -9 -10 0
-5 -5 -10 -10 -10 -16 0 -161 -85 -187 -109 -12 -12 -26 -21 -31 -21 -13 0
-182 -181 -182 -196 0 -7 -4 -14 -8 -16 -26 -10 -129 -244 -134 -304 -1 -13
-5 -24 -8 -24 -8 0 -14 -144 -6 -180 1 -8 6 -31 10 -50 4 -19 8 -43 10 -52 1
-10 5 -21 9 -24 4 -4 7 -15 7 -24 0 -33 100 -215 127 -233 7 -4 13 -12 13 -16
0 -23 183 -181 209 -181 6 0 11 -4 11 -10 0 -5 6 -10 14 -10 8 0 16 -4 18 -8
3 -8 90 -68 228 -157 115 -74 202 -142 314 -245 137 -126 246 -255 238 -282
-1 -5 3 -8 10 -8 6 0 8 -3 5 -7 -4 -3 -1 -13 5 -21 7 -8 14 -26 16 -40 2 -14
7 -33 13 -43 20 -38 30 -187 17 -259 -15 -84 -26 -128 -33 -140 -10 -17 8 -11
60 20 28 16 66 37 85 47 19 9 37 20 40 23 3 4 19 13 35 22 50 25 100 53 105
58 6 6 86 50 117 65 13 5 23 14 23 18 0 5 5 5 10 2 6 -3 10 -2 10 3 0 5 8 12
18 15 9 4 46 23 82 43 104 59 162 91 210 117 64 34 94 51 100 58 3 3 21 13 40
22 19 9 48 25 64 36 17 11 33 18 38 15 4 -3 8 -1 8 4 0 5 14 15 30 22 17 7 30
17 30 23 0 6 3 8 6 4 4 -3 23 5 43 18 19 14 41 25 47 25 7 0 14 4 16 8 2 4 40
34 86 66 84 59 239 203 283 264 13 19 29 39 35 45 24 27 86 151 109 222 41
122 38 281 -9 392 -35 83 -50 113 -58 113 -5 0 -8 5 -8 11 0 35 -137 168 -254
247 -56 37 -152 102 -213 144 -62 43 -117 78 -123 78 -5 0 -10 5 -10 10 0 6
-6 10 -14 10 -8 0 -16 3 -18 8 -4 8 -65 52 -73 52 -3 0 -11 5 -18 11 -7 5 -60
41 -119 80 -217 141 -356 323 -417 549 -18 64 -34 161 -32 195 2 58 16 142 29
175 5 14 9 27 9 30 -2 14 28 100 35 100 4 0 7 3 6 8 -4 19 73 161 113 207 70
82 106 122 119 132 9 6 33 27 55 47 22 19 46 36 53 36 6 0 12 4 12 8 0 5 17
17 38 29 74 40 116 65 174 104 33 21 64 39 69 39 5 0 9 5 9 11 0 5 4 8 9 4 5
-3 12 -1 16 5 3 5 36 26 73 47 37 20 85 51 107 67 52 40 162 154 179 186 59
109 75 141 89 185 23 70 28 99 32 182 10 187 -115 450 -293 615 -74 68 -130
105 -277 182 -61 32 -117 62 -125 67 -8 5 -76 43 -150 85 -74 42 -155 88 -180
102 -25 14 -69 40 -98 59 -29 18 -56 33 -61 33 -5 0 -11 4 -13 8 -1 5 -41 28
-88 52 -47 24 -88 49 -92 55 -4 5 -8 7 -8 3 0 -4 -17 9 -37 27 -21 19 -41 35
-45 35 -8 0 -118 108 -158 155 -72 86 -150 219 -189 325 -26 73 -59 197 -60
233 -1 9 -4 17 -8 16 -5 0 -69 -45 -143 -100z"/>
</g>
</svg>
